<svg xmlns="http://www.w3.org/2000/svg" xmlns:xlink="http://www.w3.org/1999/xlink" viewBox="0 0 141 166" version="1.1">
    <!-- Generator: Sketch 52 (66869) - http://www.bohemiancoding.com/sketch -->
    <title>Group 6</title>
    <desc>Created with Sketch.</desc>
    <defs>
        <linearGradient x1="78.7293632%" y1="81.6268382%" x2="0%" y2="22.1783088%" id="linearGradient-1">
            <stop stop-color="#75EBD6" offset="0%"/>
            <stop stop-color="#0093E9" offset="100%"/>
        </linearGradient>
    </defs>
    <g id="Page-1" stroke="none" stroke-width="1" fill="none" fill-rule="evenodd">
        <g id="Artboard" transform="translate(-139.000000, -738.000000)" stroke="url(#linearGradient-1)" stroke-width="5">
            <g id="Group-6" transform="translate(141.000000, 740.000000)">
                <path d="M1,113.704614 L1,76 L59.2485255,109.623555 C65.4325654,113.193249 73.050647,113.195264 79.2365744,109.628842 L136,76.9025724 L136,113.831406 C136,120.940322 132.226436,127.514953 126.088126,131.100735 L79.2193038,158.47983 C73.0453729,162.08642 65.415712,162.122704 59.2077579,158.574998 L11.0765802,131.069111 C4.84544087,127.508155 1,120.881487 1,113.704614 Z" id="Path-9"/>
                <path d="M97.8876264,85.3713084 L79.247449,96.3014925 C73.0592532,99.9301124 65.4016354,99.966598 59.1791434,96.3971102 L39.4741234,85.0934671 L39.4741234,81.7243078 L25.5164924,73.8305831 L25.5164924,77.0867724 L3.51206933,64.4640933 C1.95826622,63.5727654 1,61.9183244 1,60.1270205 L1,38 L59.2784535,70.9945668 C65.4503511,74.48881 73.0112131,74.453022 79.1497561,70.9005097 L136,38 L136,60.1587482 C136,61.9330344 135.059705,63.574431 133.529146,64.4719166 L111.845257,77.1868649 L111.845257,73.8305831 L97.8876264,81.7243078 L97.8876264,85.3713084 Z" id="Combined-Shape"/>
                <path d="M0,0 L58.7407542,33.4470885 C64.9347024,36.9739335 72.5375482,36.9378428 78.6977342,33.3523529 L136,0" id="Path-9" transform="translate(68.000000, 18.500000) scale(1, -1) translate(-68.000000, -18.500000) "/>
            </g>
        </g>
    </g>
</svg>